<?xml version="1.0"?>
<svg xmlns="http://www.w3.org/2000/svg" height="512px" viewBox="0 0 64 64" width="512px"><g><path d="m5.026 50.375a5.3 5.3 0 0 1 1.94 2.671 7.324 7.324 0 0 0 6.981 5.072 5.314 5.314 0 0 1 3.14 1.02 7.323 7.323 0 0 0 8.629 0 5.309 5.309 0 0 1 3.139-1.02 7.321 7.321 0 0 0 6.981-5.072 5.309 5.309 0 0 1 1.94-2.671 7.321 7.321 0 0 0 2.667-8.207c-.04-.123-.059-.25-.09-.374a18.99 18.99 0 1 0 2.647-37.794 19.092 19.092 0 0 0 -18.886 17.038 7.3 7.3 0 0 0 -7.027.86 5.307 5.307 0 0 1 -3.14 1.02 7.324 7.324 0 0 0 -6.981 5.073 5.3 5.3 0 0 1 -1.94 2.67 7.323 7.323 0 0 0 -2.667 8.207 5.288 5.288 0 0 1 0 3.3 7.322 7.322 0 0 0 2.667 8.207zm37.974-44.375a17 17 0 0 1 0 34 17.215 17.215 0 0 1 -2.76-.247 5.473 5.473 0 0 1 .2-.885 7.321 7.321 0 0 0 -2.667-8.207 5.306 5.306 0 0 1 -1.94-2.67 7.322 7.322 0 0 0 -6.982-5.073 5.286 5.286 0 0 1 -2.812-.819 17.068 17.068 0 0 1 16.961-16.099zm-38.738 32.25a5.327 5.327 0 0 1 1.938-5.971 7.29 7.29 0 0 0 2.666-3.67 5.328 5.328 0 0 1 5.079-3.691 7.3 7.3 0 0 0 4.316-1.4 5.326 5.326 0 0 1 6.277 0 7.294 7.294 0 0 0 4.315 1.4 5.326 5.326 0 0 1 5.079 3.691 7.29 7.29 0 0 0 2.667 3.67 5.327 5.327 0 0 1 1.94 5.971 7.3 7.3 0 0 0 0 4.537 5.325 5.325 0 0 1 -1.94 5.97 7.3 7.3 0 0 0 -2.667 3.671 5.327 5.327 0 0 1 -5.08 3.69 7.3 7.3 0 0 0 -4.314 1.4 5.323 5.323 0 0 1 -6.278 0 7.305 7.305 0 0 0 -4.315-1.4 5.329 5.329 0 0 1 -5.079-3.69 7.293 7.293 0 0 0 -2.666-3.671 5.325 5.325 0 0 1 -1.94-5.97 7.3 7.3 0 0 0 .002-4.537z" data-original="#000000" class="active-path" data-old_color="#000000" fill="#BB926E"/><path d="m13.915 35a3 3 0 1 0 -3-3 3 3 0 0 0 3 3zm0-4a1 1 0 1 1 -1 1 1 1 0 0 1 1-1z" data-original="#000000" class="active-path" data-old_color="#000000" fill="#BB926E"/><path d="m12 45v7a1 1 0 0 0 1 1h5a1 1 0 0 0 1-1v-7a1 1 0 0 0 -1-1h-5a1 1 0 0 0 -1 1zm2 1h3v5h-3z" data-original="#000000" class="active-path" data-old_color="#000000" fill="#BB926E"/><path d="m29.915 45a4 4 0 1 0 -4-4 4 4 0 0 0 4 4zm0-6a2 2 0 1 1 -2 2 2 2 0 0 1 2-2z" data-original="#000000" class="active-path" data-old_color="#000000" fill="#BB926E"/><path d="m20.087 32h5.657v2h-5.657z" transform="matrix(.707 -.707 .707 .707 -16.623 25.869)" data-original="#000000" class="active-path" data-old_color="#000000" fill="#BB926E"/><path d="m23.915 48.586h2v2.828h-2z" transform="matrix(.707 -.707 .707 .707 -28.058 32.262)" data-original="#000000" class="active-path" data-old_color="#000000" fill="#BB926E"/><path d="m8 39h2.915v2h-2.915z" data-original="#000000" class="active-path" data-old_color="#000000" fill="#BB926E"/><path d="m34.915 17a3 3 0 1 0 -3-3 3 3 0 0 0 3 3zm0-4a1 1 0 1 1 -1 1 1 1 0 0 1 1-1z" data-original="#000000" class="active-path" data-old_color="#000000" fill="#BB926E"/><path d="m53 27a4 4 0 1 0 -4-4 4 4 0 0 0 4 4zm0-6a2 2 0 1 1 -2 2 2 2 0 0 1 2-2z" data-original="#000000" class="active-path" data-old_color="#000000" fill="#BB926E"/><path d="m43.172 15h5.657v2h-5.657z" transform="matrix(.707 -.707 .707 .707 2.159 37.213)" data-original="#000000" class="active-path" data-old_color="#000000" fill="#BB926E"/><path d="m43 26.586h2v2.828h-2z" transform="matrix(.707 -.707 .707 .707 -6.912 39.314)" data-original="#000000" class="active-path" data-old_color="#000000" fill="#BB926E"/><path d="m30 21h3v2h-3z" data-original="#000000" class="active-path" data-old_color="#000000" fill="#BB926E"/><path d="m46 33a3 3 0 1 0 3 3 3 3 0 0 0 -3-3zm0 4a1 1 0 1 1 1-1 1 1 0 0 1 -1 1z" data-original="#000000" class="active-path" data-old_color="#000000" fill="#BB926E"/><path d="m19 39h2v2h-2z" data-original="#000000" class="active-path" data-old_color="#000000" fill="#BB926E"/><path d="m29 48h2v2h-2z" data-original="#000000" class="active-path" data-old_color="#000000" fill="#BB926E"/><path d="m21 27h2v2h-2z" data-original="#000000" class="active-path" data-old_color="#000000" fill="#BB926E"/><path d="m30 31h2v2h-2z" data-original="#000000" class="active-path" data-old_color="#000000" fill="#BB926E"/><path d="m37 23h2v2h-2z" data-original="#000000" class="active-path" data-old_color="#000000" fill="#BB926E"/><path d="m41 9h2v2h-2z" data-original="#000000" class="active-path" data-old_color="#000000" fill="#BB926E"/><path d="m53 14h2v2h-2z" data-original="#000000" class="active-path" data-old_color="#000000" fill="#BB926E"/><path d="m50 30h2v2h-2z" data-original="#000000" class="active-path" data-old_color="#000000" fill="#BB926E"/><path d="m7 45h2v2h-2z" data-original="#000000" class="active-path" data-old_color="#000000" fill="#BB926E"/></g> </svg>
