<?xml version="1.0"?>
<svg xmlns="http://www.w3.org/2000/svg" height="512px" viewBox="-64 0 512 512.00305" width="512px"><g><path d="m376.195312 4.835938c-4.941406-4.054688-11.445312-5.675782-17.710937-4.421876l-101.109375 20.222657-58.625-19.542969c-4.382812-1.457031-9.117188-1.457031-13.496094 0l-58.625 19.542969-101.109375-20.222657c-6.257812-1.171874-12.710937.480469-17.632812 4.515626-4.921875 4.035156-7.808594 10.042968-7.886719 16.40625v469.332031c.078125 6.367187 2.964844 12.371093 7.886719 16.40625 4.921875 4.035156 11.375 5.6875 17.632812 4.515625l101.109375-20.222656 58.625 19.542968c4.378906 1.457032 9.113282 1.457032 13.496094 0l58.625-19.542968 101.109375 20.222656c6.253906 1.171875 12.710937-.480469 17.632813-4.515625 4.921874-4.035157 7.808593-10.039063 7.882812-16.40625v-469.332031c0-6.390626-2.863281-12.445313-7.804688-16.5zm-184.195312 272.5c-23.550781-.027344-42.636719-19.113282-42.664062-42.667969v-24.136719l30.832031 20.554688c7.167969 4.777343 16.503906 4.777343 23.667969 0l30.832031-20.554688v24.136719c-.027344 23.554687-19.113281 42.640625-42.667969 42.667969zm21.335938 100.710937 49.414062-16.472656-13.496094-40.480469-35.917968 11.976562v-15.769531c37.648437-9.777343 63.949218-43.734375 64-82.632812v-64c0-7.867188-4.332032-15.09375-11.269532-18.804688-6.933594-3.714843-15.351562-3.308593-21.898437 1.054688l-52.167969 34.777343-52.164062-34.777343c-6.546876-4.363281-14.964844-4.769531-21.898438-1.058594-6.9375 3.710937-11.269531 10.941406-11.269531 18.808594v64c.050781 38.898437 26.351562 72.855469 64 82.632812v15.769531l-35.917969-11.976562-13.496094 40.480469 49.414063 16.472656v5.957031h-128v-256h298.667969v256h-128zm-170.667969-330.6875 81.148437 16.230469c3.644532.722656 7.410156.488281 10.933594-.679688l57.25-19.085937 57.253906 19.085937c3.523438 1.167969 7.292969 1.402344 10.933594.679688l81.148438-16.230469v37.976563h-298.667969zm298.667969 417.285156-81.152344-16.230469c-3.640625-.722656-7.40625-.488281-10.929688.679688l-57.253906 19.085938-57.25-19.085938c-3.523438-1.171875-7.292969-1.40625-10.933594-.679688l-81.148437 16.230469v-37.976562h298.667969zm0 0" data-original="#000000" class="active-path" data-old_color="#000000" fill="#BB926E"/></g> </svg>
